<svg xmlns="http://www.w3.org/2000/svg" width="32" height="32" viewBox="0 0 32 32" fill="none">
  <rect width="32" height="32" rx="6" fill="#111111"/>
  <path d="M10 7h12v2.5c0 2.5-2 4.5-4.5 6.5 2.5 2 4.5 4 4.5 6.5V25H10v-2.5c0-2.5 2-4.5 4.5-6.5C12 14 10 12 10 9.5V7z" stroke="#ffffff" stroke-width="1.5" fill="none"/>
  <path d="M12 8.5h8v1c0 1.5-1.5 3-4 4.5-2.5-1.5-4-3-4-4.5v-1z" fill="#ffffff" opacity="0.3"/>
  <path d="M12 24h8v-1c0-1.5-1.5-3-4-4.5-2.5 1.5-4 3-4 4.5v1z" fill="#ffffff" opacity="0.7"/>
  <line x1="10" y1="7" x2="22" y2="7" stroke="#ffffff" stroke-width="1.5" stroke-linecap="round"/>
  <line x1="10" y1="25" x2="22" y2="25" stroke="#ffffff" stroke-width="1.5" stroke-linecap="round"/>
</svg>
